<svg xmlns="http://www.w3.org/2000/svg" viewBox="0 0 589 588.06"><g id="Layer_2" data-name="Layer 2"><g id="Layer_1-2" data-name="Layer 1"><path d="M262.53,64.64c-9.82,31.12-10.06,58.48-9.58,74.24C255,206.75,276.73,264,295.11,301.49c-42.75-117.07-32-177.35-13.42-210.87,17.19-31.05,54-62.55,46-80.93-3.41-7.79-13.49-10-19.8-9.65C282.41,1.61,267.39,49.23,262.53,64.64Z"/><path d="M320.9,523.42c9.81-31.12,10.06-58.48,9.58-74.25-2.07-67.86-23.79-125.13-42.16-162.6,42.75,117.07,32,177.35,13.41,210.86-17.19,31.05-54,62.56-46,80.93,3.4,7.8,13.49,10,19.8,9.65C301,586.45,316,538.82,320.9,523.42Z"/><path d="M524.26,257.6c-31.17-9.8-58.58-10-74.37-9.56-68,2.06-125.33,23.74-162.86,42.08,117.26-42.67,177.63-31.91,211.2-13.39,31.1,17.16,62.66,53.93,81.06,45.92,7.81-3.4,10.06-13.47,9.67-19.77C587.39,277.45,539.69,262.45,524.26,257.6Z"/><path d="M64.74,315.87c31.17,9.81,58.58,10.05,74.37,9.57,68-2.07,125.33-23.75,162.86-42.09C184.71,326,124.34,315.27,90.77,296.74c-31.1-17.16-62.66-53.93-81.06-45.91C1.9,254.23-.35,264.3,0,270.6,1.61,296,49.31,311,64.74,315.87Z"/><path d="M478.6,433.35c-15.1-28.94-34.3-48.46-45.81-59.27-49.53-46.52-105.44-71.68-145-85.21C401,341.47,436,391.7,446.65,428.5c9.84,34.09,6.11,82.37,24.8,89.69,7.93,3.11,16.65-2.43,20.84-7.15C509.18,492,486.08,447.67,478.6,433.35Z"/><path d="M112.4,150.14c15.1,28.94,34.31,48.46,45.81,59.27,49.53,46.53,105.44,71.69,145,85.21C190,242,155,191.79,144.36,155c-9.84-34.09-6.11-82.37-24.8-89.69-7.93-3.11-16.65,2.43-20.84,7.15C81.82,91.54,104.93,135.82,112.4,150.14Z"/><path d="M431.31,105.93c-29,15.08-48.53,34.25-59.36,45.74-46.6,49.45-71.8,105.27-85.35,144.74,52.69-113,103-148,139.86-158.57,34.14-9.82,82.5-6.1,89.83-24.76,3.12-7.92-2.43-16.63-7.16-20.81C490,75.4,445.66,98.47,431.31,105.93Z"/><path d="M147.66,471.55c29-15.08,48.53-34.25,59.36-45.74,46.6-49.45,71.8-105.27,85.35-144.74-52.69,113-103,148-139.86,158.57-34.14,9.83-82.5,6.1-89.83,24.76-3.12,7.92,2.43,16.63,7.16,20.81C89,502.08,133.31,479,147.66,471.55Z"/><circle cx="289.5" cy="288.56" r="8.5"/></g></g></svg>