<svg xmlns="http://www.w3.org/2000/svg" viewBox="0 0 574.06 574.06"><g id="Layer_2" data-name="Layer 2"><g id="Layer_1-2" data-name="Layer 1"><path d="M258.05,61.33c-9,29.53-9.24,55.49-8.8,70.45,1.9,64.39,21.85,118.72,38.72,154.28C248.71,175,258.61,117.79,275.65,86,291.44,56.52,325.27,26.63,317.9,9.2,314.77,1.8,305.5-.33,299.71,0,276.32,1.53,262.52,46.71,258.05,61.33Z"/><path d="M316,512.73c9-29.53,9.25-55.49,8.8-70.45C322.9,377.89,303,323.56,286.08,288c39.27,111.08,29.37,168.27,12.32,200.07-15.79,29.46-49.61,59.35-42.24,76.79,3.13,7.4,12.4,9.52,18.19,9.16C297.74,572.53,311.54,527.34,316,512.73Z"/><path d="M61.33,316c29.53,9,55.49,9.25,70.45,8.8,64.39-1.9,118.72-21.84,154.28-38.72C175,325.35,117.79,315.45,86,298.4,56.52,282.61,26.63,248.79,9.2,256.16,1.8,259.29-.33,268.56,0,274.35,1.53,297.74,46.71,311.54,61.33,316Z"/><path d="M512.73,258.05c-29.53-9-55.49-9.24-70.45-8.8C377.89,251.15,323.56,271.1,288,288c111.08-39.26,168.27-29.36,200.07-12.32,29.46,15.79,59.35,49.62,76.79,42.25,7.4-3.13,9.52-12.4,9.16-18.19C572.53,276.32,527.34,262.52,512.73,258.05Z"/><path d="M147.92,467.11c27.26-14.5,45.78-32.7,56-43.59,44.19-46.88,68.5-99.4,81.71-136.47-50.78,106.31-98.22,139.74-132.76,150.18-32,9.67-77,6.88-84.16,24.43-3,7.44,2,15.5,6.38,19.33C92.72,496.48,134.43,474.29,147.92,467.11Z"/><path d="M426.13,107c-27.25,14.5-45.77,32.7-56,43.59-44.19,46.87-68.51,99.4-81.72,136.47C339.16,180.7,386.6,147.26,421.14,136.83c32-9.67,77.06-6.89,84.17-24.43,3-7.44-2-15.5-6.38-19.34C481.33,77.57,439.62,99.77,426.13,107Z"/><path d="M107,147.92c14.5,27.26,32.7,45.78,43.59,56,46.87,44.19,99.4,68.5,136.47,81.71C180.7,234.89,147.26,187.45,136.83,152.91c-9.67-32-6.89-77-24.43-84.16-7.44-3-15.5,2-19.34,6.38C77.57,92.72,99.77,134.43,107,147.92Z"/><path d="M467.11,426.13c-14.5-27.25-32.7-45.77-43.59-56-46.88-44.19-99.4-68.51-136.47-81.72,106.31,50.78,139.74,98.22,150.18,132.76,9.67,32,6.88,77.06,24.43,84.17,7.44,3,15.5-2,19.33-6.38C496.48,481.33,474.29,439.62,467.11,426.13Z"/><circle cx="285.62" cy="286.56" r="8.5"/></g></g></svg>